#define close_fat_width 6
#define close_fat_height 6
static unsigned char close_fat_bits[] = {
   0x33, 0x3f, 0x1e, 0x1e, 0x3f, 0x33 };
