<?xml version="1.0" encoding="UTF-8" standalone="no"?>
<!-- Created with Inkscape (http://www.inkscape.org/) -->

<svg
   xmlns:dc="http://purl.org/dc/elements/1.1/"
   xmlns:cc="http://creativecommons.org/ns#"
   xmlns:rdf="http://www.w3.org/1999/02/22-rdf-syntax-ns#"
   xmlns:svg="http://www.w3.org/2000/svg"
   xmlns="http://www.w3.org/2000/svg"
   xmlns:sodipodi="http://sodipodi.sourceforge.net/DTD/sodipodi-0.dtd"
   xmlns:inkscape="http://www.inkscape.org/namespaces/inkscape"
   id="svg7384"
   height="16"
   width="16.031"
   version="1.1"
   inkscape:version="0.48.4 r9939"
   sodipodi:docname="drive-removable-media-symbolic.svg">
  <defs
     id="defs9" />
  <sodipodi:namedview
     pagecolor="#ffffff"
     bordercolor="#666666"
     borderopacity="1"
     objecttolerance="10"
     gridtolerance="10"
     guidetolerance="10"
     inkscape:pageopacity="0"
     inkscape:pageshadow="2"
     inkscape:window-width="640"
     inkscape:window-height="480"
     id="namedview7"
     showgrid="false"
     inkscape:zoom="14.75"
     inkscape:cx="8.0155001"
     inkscape:cy="8"
     inkscape:window-x="347"
     inkscape:window-y="65"
     inkscape:window-maximized="0"
     inkscape:current-layer="svg7384" />
  <metadata
     id="metadata90">
    <rdf:RDF>
      <cc:Work
         rdf:about="">
        <dc:format>image/svg+xml</dc:format>
        <dc:type
           rdf:resource="http://purl.org/dc/dcmitype/StillImage" />
        <dc:title>Gnome Symbolic Icon Theme</dc:title>
      </cc:Work>
    </rdf:RDF>
  </metadata>
  <title
     id="title9167">Gnome Symbolic Icon Theme</title>
  <g
     id="layer10"
     transform="matrix(0.86440678,0,0,1.1460177,-189.99068,-535.81086)">
    <path
       id="path40875"
       style="text-indent:0;text-transform:none;block-progression:tb;color:#000000;fill:#bebebe;enable-background:new"
       d="m 223.41,468 c -1.3331,0 -2.4375,1.1044 -2.4375,2.4375 v 8.125 c 0,1.187 0.86705,2.1688 2,2.375 0.0599,0.0109 0.1262,0.0249 0.1875,0.0312 0.0638,0.0111 0.12205,0.0343 0.1875,0.0312 0.0204,5.2e-4 0.042,0 0.0625,0 h 11.125 c 0.0205,0 0.0421,5.2e-4 0.0625,0 0.0207,2.7e-4 0.0419,10e-4 0.0625,0 1.2776,-0.0651 2.3125,-1.1454 2.3125,-2.4375 v -8.125 c 0,-1.3331 -1.1044,-2.4375 -2.4375,-2.4375 H 223.41 z m -0.4375,9 h 12 v 1.5625 c 0,0.23862 -0.14915,0.41158 -0.375,0.4375 H 234.535 223.41 c -0.0211,0 -0.0426,0.002 -0.0625,0 -0.22585,-0.0259 -0.375,-0.19888 -0.375,-0.4375 V 477 z"
       inkscape:connector-curvature="0" />
  </g>
</svg>
