<?xml version="1.0" encoding="UTF-8" standalone="no"?>
<!-- Created with Inkscape (http://www.inkscape.org/) -->
<svg id="svg2" xmlns:rdf="http://www.w3.org/1999/02/22-rdf-syntax-ns#" xmlns="http://www.w3.org/2000/svg" height="16" viewBox="0 0 16 16" width="16" version="1.1" xmlns:cc="http://creativecommons.org/ns#" xmlns:dc="http://purl.org/dc/elements/1.1/">
 <metadata id="metadata7">
  <rdf:RDF>
   <cc:Work rdf:about="">
    <dc:format>image/svg+xml</dc:format>
    <dc:type rdf:resource="http://purl.org/dc/dcmitype/StillImage"/>
    <dc:title/>
   </cc:Work>
  </rdf:RDF>
 </metadata>
 <g id="layer1" transform="translate(0 -1036.4)">
  <path id="rect4074" style="fill:#f2f2f2" d="m2 2v12h12v-12h-12zm3 1h6v4h-6v-4zm-2 1h1v1h-1v-1zm9 0h1v1h-1v-1zm-9 3.5h1v1h-1v-1zm9 0h1v1h-1v-1zm-7 1.5h6v4h-6v-4zm-2 2h1v1h-1v-1zm9 0h1v1h-1v-1z" transform="translate(0 1036.4)"/>
 </g>
</svg>
