#define shade_width 11
#define shade_height 11
static unsigned char shade_bits[] = {
   0x00, 0x00, 0x00, 0x00, 0xfe, 0x03, 0x00, 0x00, 0x20, 0x00, 0x70, 0x00,
   0xd8, 0x00, 0x04, 0x01, 0x00, 0x00, 0x00, 0x00, 0x00, 0x00 };
