<?xml version="1.0" encoding="UTF-8" standalone="no"?>
<!-- Created with Inkscape (http://www.inkscape.org/) -->

<svg
   xmlns:dc="http://purl.org/dc/elements/1.1/"
   xmlns:cc="http://creativecommons.org/ns#"
   xmlns:rdf="http://www.w3.org/1999/02/22-rdf-syntax-ns#"
   xmlns:svg="http://www.w3.org/2000/svg"
   xmlns="http://www.w3.org/2000/svg"
   xmlns:sodipodi="http://sodipodi.sourceforge.net/DTD/sodipodi-0.dtd"
   xmlns:inkscape="http://www.inkscape.org/namespaces/inkscape"
   id="svg2"
   version="1.1"
   inkscape:version="0.91 r"
   width="512"
   height="512"
   sodipodi:docname="file-roller.svg">
  <metadata
     id="metadata8">
    <rdf:RDF>
      <cc:Work
         rdf:about="">
        <dc:format>image/svg+xml</dc:format>
        <dc:type
           rdf:resource="http://purl.org/dc/dcmitype/StillImage" />
        <dc:title />
      </cc:Work>
    </rdf:RDF>
  </metadata>
  <defs
     id="defs6" />
  <sodipodi:namedview
     pagecolor="#ffffff"
     bordercolor="#666666"
     borderopacity="1"
     objecttolerance="10"
     gridtolerance="10"
     guidetolerance="10"
     inkscape:pageopacity="0"
     inkscape:pageshadow="2"
     inkscape:window-width="1134"
     inkscape:window-height="673"
     id="namedview4"
     showgrid="false"
     inkscape:zoom="0.921875"
     inkscape:cx="27.232897"
     inkscape:cy="287.25526"
     inkscape:window-x="92"
     inkscape:window-y="39"
     inkscape:window-maximized="0"
     inkscape:current-layer="svg2" />
  <rect
     style="fill:#86c06c;fill-opacity:1;fill-rule:evenodd;stroke:none"
     id="rect2982"
     width="377.49152"
     height="488.13559"
     x="66.915253"
     y="10.677968"
     ry="50" />
  <path
     inkscape:connector-curvature="0"
     id="path3754"
     d="m 232.39613,226.76322 c -1.65,-0.73335 -4.125,-2.5518 -5.5,-4.041 l -2.5,-2.70764 0,-104.66986 0,-104.669857 24.5,0 24.5,0 0,104.669557 0,104.66956 -2.5,2.70932 c -1.375,1.49012 -4.02625,3.359 -5.89167,4.15305 -3.9394,1.67689 -6.39614,-0.19416 -6.87781,-4.46044 -0.26078,-2.30975 0.6414,-1.77838 5.25089,-2.24105 4.30166,-0.43177 5.10977,-0.86711 5.92203,-3.19025 1.54073,-4.40662 -0.50153,-5.80975 -8.45608,-5.80975 l -6.80775,0 0.89702,-3.12773 c 0.55811,-1.94601 0.52342,-3.82582 -0.0918,-4.97542 -1.14946,-2.14778 0.37384,-2.70732 8.53623,-3.13554 4.40132,-0.2309 5.09055,-0.57441 5.92203,-2.95156 1.5413,-4.40657 -0.50093,-5.80975 -8.45573,-5.80975 l -6.80775,0 0.89702,-3.12773 c 0.55811,-1.94601 0.52342,-3.82582 -0.0918,-4.97542 -1.14946,-2.14778 0.37384,-2.70732 8.53623,-3.13554 4.40132,-0.2309 5.09055,-0.57441 5.92203,-2.95156 1.5413,-4.40657 -0.50093,-5.80975 -8.45573,-5.80975 l -6.80775,0 0.89702,-3.12773 c 0.55811,-1.94601 0.52342,-3.82582 -0.0918,-4.97542 -1.14946,-2.14778 0.37384,-2.70732 8.53623,-3.13554 4.40132,-0.2309 5.09055,-0.57441 5.92203,-2.95156 1.5413,-4.40657 -0.50093,-5.80975 -8.45573,-5.80975 l -6.80775,0 0.89702,-3.12773 c 0.55811,-1.94601 0.52342,-3.82582 -0.0918,-4.97542 -1.14946,-2.14778 0.37384,-2.70732 8.53623,-3.13554 4.40132,-0.2309 5.09055,-0.57441 5.92203,-2.95156 1.5413,-4.40657 -0.50093,-5.80975 -8.45573,-5.80975 l -6.80775,0 0.89702,-3.12773 c 0.55811,-1.94601 0.52342,-3.82582 -0.0918,-4.97542 -1.14946,-2.14778 0.37384,-2.70732 8.53623,-3.13554 4.40132,-0.2309 5.09055,-0.57441 5.92203,-2.95156 1.5413,-4.40657 -0.50093,-5.80975 -8.45573,-5.80975 l -6.80775,0 0.89702,-3.12773 c 0.55811,-1.94601 0.52342,-3.82582 -0.0918,-4.97542 -1.14946,-2.14778 0.37384,-2.70732 8.53623,-3.135527 4.40132,-0.2309 5.09055,-0.57442 5.92203,-2.95157 1.5413,-4.40657 -0.50093,-5.80975 -8.45573,-5.80975 l -6.80775,0 0.89702,-3.12773 c 0.55811,-1.94602 0.52342,-3.82582 -0.0918,-4.97542 -1.14946,-2.14778 0.37384,-2.70732 8.53623,-3.13554 4.40132,-0.2309 5.09055,-0.57441 5.92203,-2.95156 1.5413,-4.40657 -0.50093,-5.80975 -8.45573,-5.80975 l -6.80775,0 0.89702,-3.12773 c 0.55811,-1.94602 0.52342,-3.82582 -0.0918,-4.97542 -1.14946,-2.14778 0.37384,-2.70732 8.53623,-3.13554 4.40132,-0.2309 5.09055,-0.57441 5.92203,-2.95156 1.5413,-4.40657 -0.50093,-5.80975 -8.45573,-5.80975 l -6.80775,0 0.89702,-3.12773 c 0.55811,-1.94602 0.52342,-3.82582 -0.0918,-4.97542 -1.14946,-2.14778 0.37384,-2.70732 8.53623,-3.13554 4.40132,-0.2309 5.09055,-0.57441 5.92203,-2.95156 1.5413,-4.40657 -0.50093,-5.80975 -8.45573,-5.80975 l -6.80775,0 0.89702,-3.12773 c 0.55811,-1.94602 0.52342,-3.82582 -0.0918,-4.97542 -1.14946,-2.14778 0.37384,-2.70732 8.53623,-3.13554 4.40132,-0.2309 5.09055,-0.57441 5.92203,-2.95156 1.69245,-4.83859 -0.28432,-5.81159 -11.7755,-5.7961 -14.82332,0.02 -16.41015,0.77082 -14.64399,6.92905 l 0.87679,3.0573 -6.80775,0 c -7.9548,0 -9.99703,1.40318 -8.4557,5.80975 0.83148,2.37715 1.52071,2.72066 5.92203,2.95156 8.16239,0.42822 9.68569,0.98776 8.53623,3.13554 -0.61525,1.1496 -0.64994,3.0294 -0.0918,4.97542 l 0.89699,3.12773 -6.80775,0 c -7.9548,0 -9.99703,1.40318 -8.4557,5.80975 0.83148,2.37715 1.52071,2.72066 5.92203,2.95156 8.16239,0.42822 9.68569,0.98776 8.53623,3.13554 -0.61525,1.1496 -0.64994,3.0294 -0.0918,4.97542 l 0.89699,3.12773 -6.80775,0 c -7.9548,0 -9.99703,1.40318 -8.4557,5.80975 0.83148,2.37715 1.52071,2.72066 5.92203,2.95156 8.16239,0.42822 9.68569,0.98776 8.53623,3.13554 -0.61525,1.1496 -0.64994,3.0294 -0.0918,4.97542 l 0.89699,3.12773 -6.80775,0 c -7.9548,0 -9.99703,1.40318 -8.4557,5.80975 0.83148,2.37715 1.52071,2.72066 5.92203,2.95156 8.16239,0.42822 9.68569,0.98776 8.53623,3.13554 -0.61525,1.1496 -0.64994,3.02941 -0.0918,4.97543 l 0.89699,3.127717 -6.80775,0 c -7.9548,0 -9.99703,1.40318 -8.4557,5.80975 0.83148,2.37715 1.52071,2.72066 5.92203,2.95156 8.16239,0.42822 9.68569,0.98776 8.53623,3.13554 -0.61525,1.1496 -0.64994,3.02941 -0.0918,4.97542 l 0.89702,3.12773 -6.80775,0 c -7.9548,0 -9.99703,1.40318 -8.4557,5.80975 0.83148,2.37715 1.52071,2.72066 5.92203,2.95156 8.16239,0.42822 9.68569,0.98776 8.53623,3.13554 -0.61525,1.1496 -0.64994,3.02941 -0.0918,4.97542 l 0.89702,3.12773 -6.80775,0 c -7.9548,0 -9.99703,1.40318 -8.4557,5.80975 0.83148,2.37715 1.52071,2.72066 5.92203,2.95156 8.16239,0.42822 9.68569,0.98776 8.53623,3.13554 -0.61525,1.1496 -0.64994,3.02941 -0.0918,4.97542 l 0.89702,3.12773 -6.80775,0 c -7.9548,0 -9.99703,1.40318 -8.4557,5.80975 0.83148,2.37715 1.52071,2.72066 5.92203,2.95156 8.16239,0.42822 9.68569,0.98776 8.53623,3.13554 -0.61525,1.1496 -0.64994,3.02941 -0.0918,4.97542 l 0.89702,3.12773 -6.80775,0 c -7.9548,0 -9.99703,1.40318 -8.4557,5.80975 0.83148,2.37715 1.52071,2.72066 5.92203,2.95156 8.16239,0.42822 9.68569,0.98776 8.53623,3.13554 -0.61525,1.1496 -0.64994,3.02941 -0.0918,4.97542 l 0.89702,3.12773 -6.80775,0 c -7.9548,0 -9.99703,1.40318 -8.4557,5.80975 0.83148,2.37715 1.52071,2.72066 5.92203,2.95156 8.93482,0.46874 9.46412,0.75645 8.25331,4.48618 -2.88262,8.87944 -5.26651,13.79933 -6.64472,13.71337 -0.34516,-0.0215 -1.97756,-0.63916 -3.62756,-1.3725 z"
     style="fill:#171817"
     sodipodi:nodetypes="cscccccccsssssscscssscscssscscssscscssscscssscscssscscssscscssscscssscscsssscssssccssssccssssccssssccssssccssssccssssccssssccssssccssssccc" />
  <path
     style="fill:#cccccc;fill-opacity:1;fill-rule:nonzero;stroke:#171817;stroke-width:2.20000005;stroke-miterlimit:4;stroke-dasharray:none;stroke-opacity:1"
     d="m 253.56085,219.23589 c -3.37857,-3.78928 -7.56918,-1.67933 -11.91405,1.07346 -1.69479,1.07377 0.42551,-2.38574 0.95658,-4.46175 1.36235,-5.32559 0.48495,-6.06393 -7.45077,-6.26989 -4.08161,-0.10592 -5.8114,-1.19649 -6.51288,-4.10613 -0.43068,-1.78639 -0.20177,-2.21338 1.54201,-2.87636 1.12628,-0.42821 4.82354,-0.77856 8.21615,-0.77856 5.59196,0 6.11229,-0.12544 5.56813,-1.34231 -0.33014,-0.73827 -0.62959,-3.23795 -0.66545,-5.55484 -0.0625,-4.03675 -0.16089,-4.23303 -2.35818,-4.7032 -1.26114,-0.26986 -3.86654,-0.53149 -5.78978,-0.5814 -4.05464,-0.10523 -5.8117,-1.19656 -6.49477,-4.03399 -0.67589,-2.80758 0.39411,-3.2791 8.45751,-3.72707 5.65882,-0.31438 6.84343,-0.59092 6.5713,-1.53406 -0.18259,-0.6328 -0.35885,-3.03426 -0.39169,-5.33657 -0.0682,-4.77991 -0.65911,-5.18552 -7.75883,-5.32541 -4.42761,-0.0872 -6.179,-1.11524 -6.88348,-4.04035 -0.66924,-2.77878 0.84994,-3.47547 9.02485,-4.13878 l 6.61,-0.53633 -0.74538,-1.9605 c -0.40996,-1.07828 -0.64304,-3.34111 -0.51795,-5.02851 0.20054,-2.70529 7.1e-4,-3.13268 -1.69015,-3.61495 -1.05467,-0.30081 -3.66372,-0.58134 -5.79789,-0.62339 -4.42761,-0.0872 -6.179,-1.11524 -6.88348,-4.04034 -0.67285,-2.7938 1.00601,-3.5665 9.10083,-4.18872 l 6.52817,-0.50179 -0.7678,-2.00081 c -0.42229,-1.10045 -0.56701,-3.27434 -0.32161,-4.83088 0.2765,-1.75374 0.11244,-3.03635 -0.43135,-3.37243 -0.48266,-0.2983 -3.443,-0.79354 -6.57854,-1.10055 -6.20975,-0.608 -6.765,-0.89958 -7.5174,-3.94763 -0.69411,-2.8119 1.1716,-3.67341 9.17903,-4.2385 l 6.43682,-0.45425 -0.76738,-1.99969 c -0.42205,-1.09983 -0.56658,-3.27322 -0.32118,-4.82976 0.2765,-1.75374 0.11244,-3.03634 -0.43135,-3.37243 -0.48266,-0.29829 -3.443,-0.79354 -6.57854,-1.10055 -6.34833,-0.62157 -7.11074,-1.06294 -7.34312,-4.25109 -0.13818,-1.89589 0.22242,-2.34572 2.52338,-3.1477 1.47654,-0.51464 5.00593,-0.95519 7.84309,-0.979 l 5.15847,-0.0433 -0.80906,-2.109327 c -0.44498,-1.16014 -0.60389,-3.41029 -0.35312,-5.00035 0.40928,-2.59521 0.25345,-2.968 -1.52298,-3.6434 -1.08841,-0.41381 -3.4234,-0.78679 -5.18887,-0.82884 -5.0371,-0.11998 -6.85961,-0.90112 -7.65254,-3.27991 -1.18032,-3.54096 0.57299,-4.55186 8.55674,-4.93357 l 6.83462,-0.32677 -0.73036,-2.64513 c -0.40169,-1.45483 -0.51316,-3.63404 -0.24769,-4.84269 0.61888,-2.81776 -0.6045,-3.47648 -7.61524,-4.10032 -5.96684,-0.53095 -6.56808,-0.88301 -6.79644,-3.97968 -0.22589,-3.06326 2.30266,-4.17037 9.55659,-4.18431 l 5.88267,-0.0113 -0.71904,-2.60414 c -0.39547,-1.43227 -0.62652,-3.74451 -0.51345,-5.13832 0.23521,-2.89923 -0.43929,-3.25146 -8.22761,-4.29655 -4.02458,-0.54005 -4.72831,-0.89041 -5.64252,-2.80916 -1.70556,-3.57963 0.0844,-4.65697 8.26748,-4.97614 l 6.79468,-0.26501 -0.69881,-2.53088 c -0.38434,-1.39198 -0.60629,-3.64047 -0.49322,-4.99663 0.25566,-3.06616 -0.5538,-3.5382 -7.46075,-4.35079 -4.87207,-0.57318 -5.46124,-0.83271 -6.40955,-2.82336 -1.70572,-3.58056 0.0842,-4.65696 8.27508,-4.97641 l 6.8021,-0.26529 -0.6924,-2.41426 c -1.35893,-4.7383 -0.97744,-5.74014 2.54716,-6.68922 4.30208,-1.15842 20.65615,-0.68113 22.25922,0.64964 1.19228,0.98976 1.03933,3.50702 -0.31922,5.25398 -0.37287,0.47947 -2.99804,1.10462 -5.83371,1.38922 -7.83084,0.78594 -7.76266,0.74267 -7.6762,4.87168 0.0415,1.98318 -0.17427,4.3824 -0.47955,5.33161 -0.54214,1.6857 -0.42127,1.72582 5.19945,1.72582 7.55549,0 9.68951,0.81979 9.68951,3.72225 0,2.9908 -1.09244,3.71097 -6.51977,4.29799 -8.26338,0.89377 -8.00871,0.73733 -7.8705,4.83453 0.0675,2.00002 -0.14202,4.41301 -0.46553,5.36221 -0.57553,1.68865 -0.46426,1.72582 5.16629,1.72582 7.55549,0 9.68951,0.81979 9.68951,3.72226 0,2.88981 -1.08294,3.69806 -5.75274,4.29353 -9.454,1.20552 -8.77256,0.82199 -8.63657,4.86087 0.0669,1.98798 -0.14298,4.39113 -0.46649,5.34033 -0.57262,1.68011 -0.44766,1.72582 4.71825,1.72582 7.3044,0 10.13755,1.06654 10.13755,3.81627 0,2.81386 -1.29483,3.76393 -5.83012,4.27785 -9.23109,1.04602 -8.69508,0.74652 -8.55919,4.78254 0.0669,1.98798 -0.14298,4.39113 -0.46649,5.34033 -0.56898,1.66943 -0.42986,1.72596 4.25743,1.7301 2.6651,0.002 6.16024,0.36933 7.76698,0.8155 2.68011,0.74424 2.9018,1.01164 2.68461,3.23811 -0.29476,3.02168 -2.66074,4.35251 -7.76572,4.36815 -5.29752,0.0162 -6.65938,0.952017 -6.45946,4.438637 0.0902,1.5727 -0.0853,3.76035 -0.39003,4.86145 l -0.55398,2.00198 6.31568,0.41611 c 7.99456,0.52672 9.00029,0.93708 9.00029,3.67231 0,2.93517 -2.50641,4.56362 -7.02402,4.56362 -1.988,0 -4.49286,0.33393 -5.56634,0.74207 -1.66618,0.63348 -1.92734,1.16662 -1.78472,3.6434 0.0919,1.59573 -0.0817,3.80007 -0.38571,4.89854 l -0.55278,1.99722 6.44237,0.4952 c 8.06421,0.61987 8.87405,0.93564 8.85945,3.4545 -0.02,3.44592 -1.00311,4.09779 -7.07729,4.69252 -3.15303,0.30871 -6.11792,0.79933 -6.58864,1.09025 -0.47072,0.29093 -0.78262,1.80852 -0.6931,3.37243 0.0895,1.56391 -0.0868,3.74563 -0.39191,4.84827 l -0.55469,2.0048 6.56082,0.53234 c 8.16056,0.66214 8.75934,0.8951 8.74481,3.4022 -0.0197,3.40739 -1.00105,4.05567 -7.18971,4.7497 -3.22838,0.36205 -6.1988,0.86161 -6.60093,1.11015 -0.40213,0.24853 -0.66428,1.73144 -0.58255,3.29535 0.0817,1.56391 -0.12729,3.96526 -0.46449,5.33632 l -0.61308,2.49285 6.00543,0.0105 c 8.19226,0.0143 9.45708,0.42783 9.45708,3.09229 0,3.23241 -1.81937,4.55613 -6.3828,4.64397 -6.75291,0.12998 -7.80137,0.68844 -7.84625,4.1793 -0.0214,1.66707 -0.30773,4.15282 -0.63622,5.52389 l -0.59724,2.49285 6.00543,0.0105 c 8.19226,0.0143 9.45708,0.42783 9.45708,3.09229 0,3.125 -1.83917,4.55306 -5.99928,4.65826 -1.97374,0.0499 -4.6241,0.31329 -5.8897,0.58528 -2.08009,0.44703 -2.30484,0.78824 -2.34007,3.55265 -0.0214,1.68197 -0.30773,4.1799 -0.63622,5.55097 l -0.59724,2.49285 6.24762,0 c 7.43185,0 9.21489,0.74209 9.21489,3.83516 0,2.67996 -1.35652,3.55526 -6.58463,4.2488 -3.30242,0.43808 -7.46712,0.86065 -8.80166,-0.63612 z"
     id="path3785"
     inkscape:connector-curvature="0"
     sodipodi:nodetypes="cssssssssssssssssscsssssscsssssscsscsssscsssssscssssscssssscssssscssssscsssscsssscsssscscssscccsssssccsssccccscsccscssscscsssscscsssc" />
  <path
     sodipodi:type="arc"
     style="fill:#ffffff;fill-opacity:1;fill-rule:nonzero;stroke:none"
     id="path3781"
     sodipodi:cx="263.95456"
     sodipodi:cy="244.40202"
     sodipodi:rx="13.493829"
     sodipodi:ry="29.243061"
     d="m 265.93457,215.47549 a 13.493829,29.243061 0 1 1 -1.93922,-0.31639"
     transform="matrix(1.1292517,0,0,0.96393443,-48.672006,7.9738527)"
     sodipodi:start="4.8596549"
     sodipodi:end="10.998597"
     sodipodi:open="true" />
  <path
     sodipodi:type="arc"
     style="fill:#86c06c;fill-opacity:1;fill-rule:nonzero;stroke:none"
     id="path3783"
     sodipodi:cx="217.54919"
     sodipodi:cy="238.26578"
     sodipodi:rx="8.9167366"
     sodipodi:ry="11.601345"
     d="m 226.46593,238.26578 a 8.9167366,11.601345 0 1 1 -17.83347,0 8.9167366,11.601345 0 1 1 17.83347,0 z"
     transform="matrix(1,0,0,1.3623192,31.562314,-86.294357)" />
</svg>
