<?xml version="1.0" encoding="UTF-8" standalone="no"?>
<!-- Created with Inkscape (http://www.inkscape.org/) -->

<svg
   xmlns:dc="http://purl.org/dc/elements/1.1/"
   xmlns:cc="http://creativecommons.org/ns#"
   xmlns:rdf="http://www.w3.org/1999/02/22-rdf-syntax-ns#"
   xmlns:svg="http://www.w3.org/2000/svg"
   xmlns="http://www.w3.org/2000/svg"
   xmlns:sodipodi="http://sodipodi.sourceforge.net/DTD/sodipodi-0.dtd"
   xmlns:inkscape="http://www.inkscape.org/namespaces/inkscape"
   id="svg2"
   version="1.1"
   inkscape:version="0.91 r"
   width="641.25"
   height="641.25"
   viewBox="0 0 641.25 641.25"
   sodipodi:docname="trash-full.svg">
  <metadata
     id="metadata8">
    <rdf:RDF>
      <cc:Work
         rdf:about="">
        <dc:format>image/svg+xml</dc:format>
        <dc:type
           rdf:resource="http://purl.org/dc/dcmitype/StillImage" />
        <dc:title></dc:title>
      </cc:Work>
    </rdf:RDF>
  </metadata>
  <defs
     id="defs6" />
  <sodipodi:namedview
     pagecolor="#ffffff"
     bordercolor="#666666"
     borderopacity="1"
     objecttolerance="10"
     gridtolerance="10"
     guidetolerance="10"
     inkscape:pageopacity="0"
     inkscape:pageshadow="2"
     inkscape:window-width="1275"
     inkscape:window-height="666"
     id="namedview4"
     showgrid="false"
     inkscape:zoom="0.70710678"
     inkscape:cx="359.73086"
     inkscape:cy="309.88732"
     inkscape:window-x="57"
     inkscape:window-y="61"
     inkscape:window-maximized="0"
     inkscape:current-layer="svg2" />
  <path
     inkscape:connector-curvature="0"
     id="path3348"
     d="M 295.17594,606.82159 C 232.4385,602.52064 181.36179,585.38721 159.29287,561.24032 151.43497,552.64253 149.30819,548.03804 146.97954,534.58198 140.55295,497.44611 77.407651,157.70803 75.756431,151.38318 64.450701,108.07762 110.58159,68.854759 198.09206,47.367094 218.13314,42.44613 248.58516,37.572909 272.75,35.419622 c 21.69631,-1.933322 72.05369,-1.933322 93.75,0 105.86516,9.433463 185.11346,45.92507 197.05489,90.738218 2.30583,8.65327 2.10932,15.26721 -0.80915,27.23274 C 559.5888,166.33381 491.5,535.38934 491.5,539.55741 c 0,1.69187 -1.72459,6.52734 -3.83243,10.74549 -10.6967,21.40599 -46.56266,40.37584 -95.00107,50.24695 -26.96041,5.49419 -69.19746,8.21138 -97.49056,6.27174 z"
     style="fill:#98999b" />
  <path
     inkscape:connector-curvature="0"
     id="path3340"
     d="m 291.38848,212.23969 c -76.34729,-3.80616 -146.89823,-24.95061 -177.36446,-53.15698 -7.73149,-7.15798 -13.89481,-17.36825 -13.87333,-22.9828 0.0363,-9.50216 11.72083,-23.70133 28.11279,-34.16314 70.15245,-44.773279 215.32423,-56.696235 321.74316,-26.42477 36.7594,10.456413 64.53448,24.70382 79.87759,40.97371 10.37356,11.00015 12.32956,17.98007 7.82131,27.91002 -10.59251,23.33127 -57.76062,47.08615 -117.10956,58.97888 -23.8887,4.78698 -46.63126,7.50482 -74.80809,8.93989 -24.66352,1.25614 -27.78817,1.25185 -54.39941,-0.0747 z"
     style="fill:#323232" />
  <path
     style="opacity:1;fill:#f4dc78;fill-opacity:1;stroke:none;stroke-width:2.41100001;stroke-miterlimit:4;stroke-dasharray:none;stroke-dashoffset:0;stroke-opacity:1"
     d="m 180.87704,193.41234 c -29.79411,-9.47095 -30.32436,-10.84373 -30.68067,-23.85377 -0.15851,-5.78764 -0.37466,-11.48981 -0.48033,-12.67148 -0.24581,-2.74874 60.21392,-45.64431 64.52744,-45.78157 1.78048,-0.0567 5.55345,0.77762 8.38439,1.85393 l 5.14714,1.95695 -5.00096,6.20868 c -20.38608,25.30923 -31.9417,41.63518 -31.9417,45.12769 0,2.25383 3.0374,10.76302 6.74978,18.9093 3.71239,8.14629 6.51576,15.04547 6.22971,15.33151 -0.28604,0.28604 -10.97948,-3.28088 -22.9348,-7.08124 z"
     id="path3370"
     inkscape:connector-curvature="0"
     sodipodi:nodetypes="ssscscssscs" />
  <path
     style="opacity:1;fill:#f4dc78;fill-opacity:1;stroke:none;stroke-width:2.41100001;stroke-miterlimit:4;stroke-dasharray:none;stroke-dashoffset:0;stroke-opacity:1"
     d="m 468.46353,184.47444 c 0,-3.84184 -3.9167,-9.79548 -14.2196,-21.61489 -15.9786,-18.3304 -16.2194,-17.29002 4.6677,-20.16274 9.1374,-1.2567 10.3127,-0.94685 15.6564,4.12773 10.3854,9.86223 26.25136,29.44487 23.77121,30.90625 -2.24692,1.80268 -31.027,14.02036 -33.7175,14.02036 -1.0886,0 3.84179,-4.36044 3.84179,-7.27671 z"
     id="path3374"
     inkscape:connector-curvature="0"
     sodipodi:nodetypes="sssscss" />
  <path
     style="opacity:1;fill:#ffffff;fill-opacity:1;stroke:none;stroke-width:2.41100001;stroke-miterlimit:4;stroke-dasharray:none;stroke-dashoffset:0;stroke-opacity:1"
     d="m 270.12339,211.54423 c -21.70829,-2.49763 -60.55913,-9.70742 -66.19691,-10.95223 -5.23408,-1.15569 -6.54041,-5.37866 -11.72498,-18.25616 -3.43812,-8.53967 -6.25114,-16.33036 -6.25114,-17.31265 0,-1.75847 25.91993,-35.04396 46.98029,-60.33048 5.92148,-7.109723 12.16014,-12.945404 13.86371,-12.968172 4.40485,-0.05887 82.10784,9.335712 87.57993,10.588742 3.04168,0.6965 5.84297,3.91724 8.46249,9.7296 2.15364,4.77865 5.14657,9.15205 6.65094,9.71867 1.50438,0.56661 13.64254,-1.21396 26.97369,-3.95683 13.33114,-2.74287 25.99911,-4.98704 28.15103,-4.98704 4.87544,0 67.13475,64.10488 67.13475,69.12485 0,4.07876 -0.30297,7.79616 -5.57048,9.53873 -4.99326,1.65184 -13.33634,4.92112 -24.77096,7.69063 -40.57416,9.82721 -60.55477,13.51653 -114.85416,14.12743 -27.45411,0.30887 -52.66,-1.32154 -56.4282,-1.75509 z"
     id="path3361"
     inkscape:connector-curvature="0"
     sodipodi:nodetypes="ssssssssssssssss" />
</svg>
