#define desk_toggled_hover_width 16
#define desk_toggled_hover_height 16
static unsigned char desk_toggled_hover_bits[] = {
   0xe0, 0x07, 0xf8, 0x1f, 0xfc, 0x3f, 0xfe, 0x7f, 0x7e, 0x7e, 0x7f, 0xfe,
   0x7f, 0xfe, 0x0f, 0xf0, 0x0f, 0xf0, 0x7f, 0xfe, 0x7f, 0xfe, 0x7e, 0x7e,
   0xfe, 0x7f, 0xfc, 0x3f, 0xf8, 0x1f, 0xe0, 0x07 };
