#define shade_toggled_hover_width 16
#define shade_toggled_hover_height 16
static unsigned char shade_toggled_hover_bits[] = {
   0xe0, 0x07, 0xf8, 0x1f, 0xfc, 0x3f, 0xfe, 0x7f, 0xfe, 0x7f, 0xe7, 0xe7,
   0xc7, 0xe3, 0x8f, 0xf1, 0x1f, 0xf8, 0x3f, 0xfc, 0x7f, 0xfe, 0xfe, 0x7f,
   0xfe, 0x7f, 0xfc, 0x3f, 0xf8, 0x1f, 0xe0, 0x07 };
