#define bullet_width 8
#define bullet_height 8
static unsigned char bullet_bits[] = {
   0x04, 0x0e, 0x1c, 0x38, 0x38, 0x1c, 0x0e, 0x04 };
