#define desk_toggled_width 14
#define desk_toggled_height 14
static unsigned char desk_toggled_bits[] = {
   0x00, 0x00, 0x00, 0x00, 0x00, 0x00, 0x00, 0x00, 0x30, 0x03, 0x30, 0x03,
   0x00, 0x00, 0x00, 0x00, 0x30, 0x03, 0x30, 0x03, 0x00, 0x00, 0x00, 0x00,
   0x00, 0x00, 0x00, 0x00 };
