#define shade_toggled_width 14
#define shade_toggled_height 14
static unsigned char shade_toggled_bits[] = {
   0x20, 0x01, 0x08, 0x04, 0x00, 0x00, 0x12, 0x12, 0x38, 0x07, 0xf1, 0x23,
   0xe0, 0x01, 0xc0, 0x00, 0x01, 0x20, 0xf8, 0x07, 0xfa, 0x17, 0x00, 0x00,
   0x08, 0x04, 0x20, 0x01 };
