<?xml version="1.0" encoding="UTF-8" standalone="no"?>
<!-- Created with Inkscape (http://www.inkscape.org/) -->

<svg
   xmlns:dc="http://purl.org/dc/elements/1.1/"
   xmlns:cc="http://creativecommons.org/ns#"
   xmlns:rdf="http://www.w3.org/1999/02/22-rdf-syntax-ns#"
   xmlns:svg="http://www.w3.org/2000/svg"
   xmlns="http://www.w3.org/2000/svg"
   xmlns:sodipodi="http://sodipodi.sourceforge.net/DTD/sodipodi-0.dtd"
   xmlns:inkscape="http://www.inkscape.org/namespaces/inkscape"
   id="svg2"
   version="1.1"
   inkscape:version="0.48.5 r10040"
   width="512"
   height="513"
   sodipodi:docname="folder-user.svg">
  <metadata
     id="metadata8">
    <rdf:RDF>
      <cc:Work
         rdf:about="">
        <dc:format>image/svg+xml</dc:format>
        <dc:type
           rdf:resource="http://purl.org/dc/dcmitype/StillImage" />
        <dc:title></dc:title>
      </cc:Work>
    </rdf:RDF>
  </metadata>
  <defs
     id="defs6" />
  <sodipodi:namedview
     pagecolor="#ffffff"
     bordercolor="#666666"
     borderopacity="1"
     objecttolerance="10"
     gridtolerance="10"
     guidetolerance="10"
     inkscape:pageopacity="0"
     inkscape:pageshadow="2"
     inkscape:window-width="858"
     inkscape:window-height="631"
     id="namedview4"
     showgrid="false"
     showguides="true"
     inkscape:guide-bbox="true"
     inkscape:zoom="0.46003898"
     inkscape:cx="355.42004"
     inkscape:cy="151.09593"
     inkscape:window-x="-6"
     inkscape:window-y="39"
     inkscape:window-maximized="0"
     inkscape:current-layer="g4710">
    <sodipodi:guide
       orientation="0,1"
       position="184.44701,298.18933"
       id="guide2987" />
    <sodipodi:guide
       orientation="0,1"
       position="56.87116,175.22466"
       id="guide2989" />
    <sodipodi:guide
       orientation="1,0"
       position="175.22466,192.1323"
       id="guide2991" />
    <sodipodi:guide
       orientation="0,1"
       position="243.45763,441.67453"
       id="guide3001" />
    <sodipodi:guide
       orientation="0,1"
       position="5.094677,72.072697"
       id="guide3003" />
    <sodipodi:guide
       orientation="1,0"
       position="9.2223504,483.40486"
       id="guide3005" />
    <sodipodi:guide
       orientation="1,0"
       position="502.61809,484.17339"
       id="guide3007" />
    <sodipodi:guide
       orientation="1,0"
       position="334.75424,298.18933"
       id="guide4630" />
  </sodipodi:namedview>
  <g
     id="g2995"
     transform="translate(0.9903772,-0.30574634)">
    <rect
       y="71.733047"
       x="33.692795"
       height="44.56144"
       width="183.68008"
       id="rect2984"
       style="fill-opacity:1;fill:#a48646;fill-rule:evenodd;stroke-opacity:0;stroke:#a48646;stroke-width:0;stroke-linecap:butt;stroke-linejoin:miter;stroke-miterlimit:4;stroke-dasharray:none" />
    <rect
       y="115.20763"
       x="8.6949148"
       height="326.0593"
       width="493.43646"
       id="rect2982"
       style="fill:#d6b878;fill-rule:evenodd;stroke-opacity:1;stroke:#a48646;stroke-width:0;stroke-linecap:butt;stroke-linejoin:miter;stroke-miterlimit:4;stroke-dasharray:none" />
  </g>
  <g
     transform="translate(226.5678,445.61441)"
     id="g3926">
    <g
       transform="translate(21.737289,-39.127119)"
       id="g4102">
      <g
         id="g4157"
         transform="translate(-671.90801,-288.45425)">
        <g
           id="g4214"
           transform="translate(10.868643,220.39399)">
          <path
             transform="matrix(3.8548236,0,0,4.0011786,570.95488,-4159.5772)"
             d="m 27.500001,1048.8622 a 3.502425,3.5001078 0 1 1 -7.00485,0 3.502425,3.5001078 0 1 1 7.00485,0 z"
             sodipodi:ry="3.5001078"
             sodipodi:rx="3.502425"
             sodipodi:cy="1048.8622"
             sodipodi:cx="23.997576"
             id="path3265"
             style="fill-opacity:1;fill:none;stroke-opacity:0;strokenone"
             sodipodi:type="arc" />
          <path
             transform="matrix(3.8548236,0,0,4.0011786,159.08956,-3834.1456)"
             sodipodi:type="arc"
             style="fill-opacity:1;fill:none;stroke-opacity:0;strokenone"
             id="path3267"
             sodipodi:cx="23.997576"
             sodipodi:cy="1007.8622"
             sodipodi:rx="3.502425"
             sodipodi:ry="3.5001078"
             d="m 27.500001,1007.8622 c 0,1.933 -1.568089,3.5001 -3.502425,3.5001 -1.934336,0 -3.502425,-1.5671 -3.502425,-3.5001 0,-1.9331 1.568089,-3.5001 3.502425,-3.5001 1.934336,0 3.502425,1.567 3.502425,3.5001 z" />
          <path
             transform="matrix(3.8548236,0,0,4.0011786,570.95488,-4159.5772)"
             d="m 11,1028.3622 a 5.5038109,5.5001693 0 1 1 -11.00762177,0 5.5038109,5.5001693 0 1 1 11.00762177,0 z"
             sodipodi:ry="5.5001693"
             sodipodi:rx="5.5038109"
             sodipodi:cy="1028.3622"
             sodipodi:cx="5.4961891"
             id="path3269"
             style="fill-opacity:1;fill:none;stroke-opacity:0;strokenone"
             sodipodi:type="arc" />
          <path
             transform="matrix(3.8548236,0,0,4.0011786,570.95488,-4159.5772)"
             sodipodi:type="arc"
             style="fill-opacity:1;fill:none;stroke-opacity:0;strokenone"
             id="path3271"
             sodipodi:cx="42.496189"
             sodipodi:cy="1028.3622"
             sodipodi:rx="5.5038109"
             sodipodi:ry="5.5001693"
             d="m 48,1028.3622 a 5.5038109,5.5001693 0 1 1 -11.007622,0 5.5038109,5.5001693 0 1 1 11.007622,0 z" />
          <path
             transform="matrix(3.8548236,0,0,4.0011786,570.95488,-4159.5772)"
             sodipodi:type="arc"
             style="fill-opacity:1;fill:none;stroke-opacity:0;strokenone"
             id="path3293"
             sodipodi:cx="23.997576"
             sodipodi:cy="1048.8622"
             sodipodi:rx="3.502425"
             sodipodi:ry="3.5001078"
             d="m 27.500001,1048.8622 a 3.502425,3.5001078 0 1 1 -7.00485,0 3.502425,3.5001078 0 1 1 7.00485,0 z" />
          <path
             transform="matrix(3.8548236,0,0,4.0011786,159.08956,-3834.1456)"
             d="m 27.500001,1007.8622 c 0,1.933 -1.568089,3.5001 -3.502425,3.5001 -1.934336,0 -3.502425,-1.5671 -3.502425,-3.5001 0,-1.9331 1.568089,-3.5001 3.502425,-3.5001 1.934336,0 3.502425,1.567 3.502425,3.5001 z"
             sodipodi:ry="3.5001078"
             sodipodi:rx="3.502425"
             sodipodi:cy="1007.8622"
             sodipodi:cx="23.997576"
             id="path3295"
             style="fill-opacity:1;fill:none;stroke-opacity:0;strokenone"
             sodipodi:type="arc" />
          <path
             transform="matrix(3.8548236,0,0,4.0011786,570.95488,-4159.5772)"
             sodipodi:type="arc"
             style="fill-opacity:1;fill:none;stroke-opacity:0;strokenone"
             id="path3297"
             sodipodi:cx="5.4961891"
             sodipodi:cy="1028.3622"
             sodipodi:rx="5.5038109"
             sodipodi:ry="5.5001693"
             d="m 11,1028.3622 a 5.5038109,5.5001693 0 1 1 -11.00762177,0 5.5038109,5.5001693 0 1 1 11.00762177,0 z" />
          <path
             transform="matrix(3.8548236,0,0,4.0011786,570.95488,-4159.5772)"
             d="m 48,1028.3622 a 5.5038109,5.5001693 0 1 1 -11.007622,0 5.5038109,5.5001693 0 1 1 11.007622,0 z"
             sodipodi:ry="5.5001693"
             sodipodi:rx="5.5038109"
             sodipodi:cy="1028.3622"
             sodipodi:cx="42.496189"
             id="path3299"
             style="fill-opacity:1;fill:none;stroke-opacity:0;strokenone"
             sodipodi:type="arc" />
          <g
             id="g4509"
             transform="translate(756.68343,131.09839)">
            <g
               id="g4626"
               transform="translate(-198.03512,-23.259323)">
              <g
                 id="g4778"
                 transform="translate(-191.28813,-171.72458)">
                <path
                   transform="matrix(3.8548236,0,0,4.0011786,159.08956,-3834.1456)"
                   d="m 27.500001,1048.8622 c 0,1.933 -1.568089,3.5001 -3.502425,3.5001 -1.934336,0 -3.502425,-1.5671 -3.502425,-3.5001 0,-1.9331 1.568089,-3.5001 3.502425,-3.5001 1.934336,0 3.502425,1.567 3.502425,3.5001 z"
                   sodipodi:ry="3.5001078"
                   sodipodi:rx="3.502425"
                   sodipodi:cy="1048.8622"
                   sodipodi:cx="23.997576"
                   id="path3265-2"
                   style="fill-opacity:1;fill:none;stroke-opacity:0;strokenone"
                   sodipodi:type="arc" />
                <path
                   transform="matrix(3.8548236,0,0,4.0011786,159.08956,-3834.1456)"
                   sodipodi:type="arc"
                   style="fill-opacity:1;fill:none;stroke-opacity:0;strokenone"
                   id="path3267-2"
                   sodipodi:cx="23.997576"
                   sodipodi:cy="1007.8622"
                   sodipodi:rx="3.502425"
                   sodipodi:ry="3.5001078"
                   d="m 27.500001,1007.8622 c 0,1.933 -1.568089,3.5001 -3.502425,3.5001 -1.934336,0 -3.502425,-1.5671 -3.502425,-3.5001 0,-1.9331 1.568089,-3.5001 3.502425,-3.5001 1.934336,0 3.502425,1.567 3.502425,3.5001 z" />
                <path
                   transform="matrix(3.8548236,0,0,4.0011786,159.08956,-3834.1456)"
                   d="m 11,1028.3622 c 0,3.0376 -2.4641401,5.5002 -5.5038109,5.5002 -3.0396708,0 -5.50381087,-2.4626 -5.50381087,-5.5002 0,-3.0377 2.46414007,-5.5002 5.50381087,-5.5002 3.0396708,0 5.5038109,2.4625 5.5038109,5.5002 z"
                   sodipodi:ry="5.5001693"
                   sodipodi:rx="5.5038109"
                   sodipodi:cy="1028.3622"
                   sodipodi:cx="5.4961891"
                   id="path3269-9"
                   style="fill-opacity:1;fill:none;stroke-opacity:0;strokenone"
                   sodipodi:type="arc" />
                <path
                   transform="matrix(3.8548236,0,0,4.0011786,159.08956,-3834.1456)"
                   sodipodi:type="arc"
                   style="fill-opacity:1;fill:none;stroke-opacity:0;strokenone"
                   id="path3271-8"
                   sodipodi:cx="42.496189"
                   sodipodi:cy="1028.3622"
                   sodipodi:rx="5.5038109"
                   sodipodi:ry="5.5001693"
                   d="m 48,1028.3622 c 0,3.0376 -2.46414,5.5002 -5.503811,5.5002 -3.039671,0 -5.503811,-2.4626 -5.503811,-5.5002 0,-3.0377 2.46414,-5.5002 5.503811,-5.5002 3.039671,0 5.503811,2.4625 5.503811,5.5002 z" />
                <path
                   transform="matrix(3.8548236,0,0,4.0011786,159.08956,-3834.1456)"
                   sodipodi:type="arc"
                   style="fill-opacity:1;fill:none;stroke-opacity:0;strokenone"
                   id="path3293-2"
                   sodipodi:cx="23.997576"
                   sodipodi:cy="1048.8622"
                   sodipodi:rx="3.502425"
                   sodipodi:ry="3.5001078"
                   d="m 27.500001,1048.8622 c 0,1.933 -1.568089,3.5001 -3.502425,3.5001 -1.934336,0 -3.502425,-1.5671 -3.502425,-3.5001 0,-1.9331 1.568089,-3.5001 3.502425,-3.5001 1.934336,0 3.502425,1.567 3.502425,3.5001 z" />
                <path
                   transform="matrix(3.8548236,0,0,4.0011786,159.08956,-3834.1456)"
                   d="m 27.500001,1007.8622 c 0,1.933 -1.568089,3.5001 -3.502425,3.5001 -1.934336,0 -3.502425,-1.5671 -3.502425,-3.5001 0,-1.9331 1.568089,-3.5001 3.502425,-3.5001 1.934336,0 3.502425,1.567 3.502425,3.5001 z"
                   sodipodi:ry="3.5001078"
                   sodipodi:rx="3.502425"
                   sodipodi:cy="1007.8622"
                   sodipodi:cx="23.997576"
                   id="path3295-9"
                   style="fill-opacity:1;fill:none;stroke-opacity:0;strokenone"
                   sodipodi:type="arc" />
                <path
                   transform="matrix(3.8548236,0,0,4.0011786,159.08956,-3834.1456)"
                   sodipodi:type="arc"
                   style="fill-opacity:1;fill:none;stroke-opacity:0;strokenone"
                   id="path3297-3"
                   sodipodi:cx="5.4961891"
                   sodipodi:cy="1028.3622"
                   sodipodi:rx="5.5038109"
                   sodipodi:ry="5.5001693"
                   d="m 11,1028.3622 c 0,3.0376 -2.4641401,5.5002 -5.5038109,5.5002 -3.0396708,0 -5.50381087,-2.4626 -5.50381087,-5.5002 0,-3.0377 2.46414007,-5.5002 5.50381087,-5.5002 3.0396708,0 5.5038109,2.4625 5.5038109,5.5002 z" />
                <path
                   transform="matrix(3.8548236,0,0,4.0011786,159.08956,-3834.1456)"
                   d="m 48,1028.3622 c 0,3.0376 -2.46414,5.5002 -5.503811,5.5002 -3.039671,0 -5.503811,-2.4626 -5.503811,-5.5002 0,-3.0377 2.46414,-5.5002 5.503811,-5.5002 3.039671,0 5.503811,2.4625 5.503811,5.5002 z"
                   sodipodi:ry="5.5001693"
                   sodipodi:rx="5.5038109"
                   sodipodi:cy="1028.3622"
                   sodipodi:cx="42.496189"
                   id="path3299-0"
                   style="fill-opacity:1;fill:none;stroke-opacity:0;strokenone"
                   sodipodi:type="arc" />
                <g
                   transform="matrix(0.32551003,0,0,0.32551003,837.32208,297.87301)"
                   style="fill-opacity:1;fill:#a48646"
                   id="g4710">
                  <path
                     inkscape:connector-curvature="0"
                     id="path4712"
                     d="m -1660.0565,-657.53557 c -6.6237,-0.48197 -7.2017,-0.63665 -3.8899,-1.04092 l 3.8899,-0.47484 -4.2111,-0.15101 c -18.6492,-0.66879 -48.5269,-8.28962 -71.2565,-18.17516 -46.8502,-20.37604 -87.9163,-60.59413 -109.9592,-107.6884 -10.6254,-22.70102 -19.3947,-55.74987 -19.9997,-75.37298 l -0.1298,-4.21109 -0.5322,3.88983 c -0.9171,6.70393 -1.8621,-16.01648 -1.1595,-27.87712 0.4847,-8.18017 0.7484,-9.70411 1.1595,-6.69916 l 0.5322,3.88983 0.1298,-4.21109 c 0.4038,-13.09615 6.3569,-40.54745 12.3963,-57.16179 7.6325,-20.99707 21.8096,-45.91965 36.387,-63.96613 7.4663,-9.2431 22.5385,-24.2153 32.1987,-31.9851 18.1818,-14.6236 41.8209,-28.0095 63.0716,-35.7148 16.661,-6.0411 44.0862,-11.9845 57.1618,-12.3876 l 4.2111,-0.1298 -3.8899,-0.541 c -6.4603,-0.8984 20.0177,-1.8048 29.8221,-1.0209 5.6733,0.4537 7.3072,0.777 4.7542,0.941 -2.9244,0.1878 -1.9589,0.4346 3.8898,0.9945 17.7353,1.6977 40.9375,7.1529 56.6583,13.3214 30.6321,12.0191 53.3,26.8785 77.0045,50.4785 28.8158,28.6887 47.303,60.57779 57.4252,99.05461 2.9773,11.31741 6.2902,30.74427 6.5548,38.43837 l 0.1338,3.88983 0.5347,-3.88983 c 0.8874,-6.45592 1.7628,19.09006 1.0071,29.38983 -0.3904,5.32183 -0.7618,7.46723 -0.8976,5.18645 -0.1554,-2.60795 -0.6064,-0.47149 -1.3686,6.48304 -4.4175,40.30829 -19.9677,78.52235 -45.1994,111.07628 -7.8541,10.13324 -24.7853,27.32057 -35.1579,35.68951 -25.6185,20.67001 -53.1837,34.43564 -85.2276,42.56131 -9.3568,2.3727 -28.6225,5.49082 -35.3571,5.72249 l -3.8898,0.13381 3.8898,0.60475 3.8898,0.60474 -4.4036,0.12984 c -2.4221,0.0714 -8.4513,0.27721 -13.3983,0.45736 -4.9471,0.18014 -12.4955,0.0728 -16.7743,-0.23856 z m 37.9719,-12.72165 c 18.5532,-2.69334 34.206,-7.98466 34.206,-11.56308 0,-0.93063 -2.3051,-4.37031 -5.1224,-7.64372 -19.0637,-22.1497 -44.8381,-28.00459 -78.725,-17.88311 -13.3731,3.99432 -38.7812,13.59422 -39.2562,14.83209 -0.7232,1.88455 5.2113,7.82306 11.5209,11.52862 18.8008,11.04163 47.6594,15.04321 77.3767,10.7292 z m 24.5265,-69.53697 c 12.5651,-6.27885 27.9734,-24.26623 54.3805,-63.48291 7.6124,-11.3051 9.3572,-13.35366 13.6202,-15.99152 12.5438,-7.76183 17.6259,-11.35654 18.9824,-13.42675 0.8088,-1.23441 2.062,-5.95116 2.7849,-10.48165 l 1.3143,-8.23728 -2.0192,-2.15716 c -1.1105,-1.18644 -6.6501,-4.74793 -12.3101,-7.91444 -5.6601,-3.16651 -11.5716,-7.06008 -13.1367,-8.65236 -1.5652,-1.59229 -5.4592,-7.96016 -8.6534,-14.15082 -6.052,-11.72922 -10.4858,-18.34086 -14.3245,-21.36038 -1.5444,-1.2148 -5.9154,-2.45306 -13.8003,-3.90949 -25.3868,-4.68924 -41.045,-11.10971 -40.4671,-16.59313 0.3374,-3.2013 -0.1562,-3.62908 -7.594,-6.58071 -17.1603,-6.80989 -30.3745,-7.17885 -45.0345,-1.2574 -11.7864,4.76074 -24.2472,14.77453 -32.8867,26.42855 -11.7506,15.85079 -12.4748,27.46543 -2.3439,37.59627 7.4135,7.4135 16.8682,11.78887 41.4745,19.19312 8.498,2.55713 16.4115,5.27874 17.5856,6.04801 6.4568,4.23069 12.1914,29.66659 15.3857,68.24376 1.9248,23.24551 3.9219,30.7077 9.6299,35.98114 3.012,2.78263 4.0893,3.19434 8.5852,3.28112 2.3215,0.0448 5.3529,-0.83981 8.8272,-2.57597 z m -215.0662,-39.32244 c 0,-0.73674 -0.6179,-2.53442 -1.3732,-3.99484 -2.6497,-5.1241 -0.759,-9.01526 10.4284,-21.46224 7.5824,-8.43593 12.8518,-16.52243 15.0835,-23.14699 2.2101,-6.56076 2.4665,-17.99318 0.4893,-21.81674 -0.7173,-1.38707 -6.1267,-6.41075 -12.021,-11.16374 -5.8943,-4.75299 -11.4704,-9.72528 -12.3913,-11.04953 -3.2838,-4.72189 -11.3606,-19.82888 -14.8792,-27.83038 -6.3984,-14.55044 -8.1098,-21.57359 -8.0864,-33.18436 0.02,-9.66805 -0.068,-10.18667 -1.6834,-9.94068 -1.0261,0.15629 -3.0141,2.43022 -4.9968,5.71561 -10.0065,16.58101 -15.7736,47.77178 -13.6953,74.06936 1.5802,19.99471 7.4967,46.27993 13.2306,58.77966 2.6698,5.8199 9.1789,14.27701 14.1538,18.38956 8.2425,6.81382 15.741,9.97464 15.741,6.63531 z m 369.7741,-94.83752 c 4.6057,-4.90247 6.1505,-14.52204 4.5585,-28.38498 -2.5471,-22.18016 -9.9074,-47.47291 -19.4693,-66.90407 -6.447,-13.10136 -13.2105,-21.6815 -33.2902,-42.2316 -13.5324,-13.8495 -23.4045,-21.9176 -29.8132,-24.3651 -5.7037,-2.1782 -11.7233,-0.878 -23.901,5.1628 -5.3388,2.6484 -10.3849,4.8152 -11.2135,4.8152 -1.0389,0 -1.9494,-1.3335 -2.9336,-4.2965 -0.8522,-2.5657 -2.5181,-5.2146 -4.1354,-6.5755 -2.3393,-1.9683 -3.3136,-2.2288 -7.1488,-1.9107 -5.0427,0.4182 -14.9755,6.0184 -28.4082,16.017 -10.0473,7.4787 -10.9528,9.4352 -8.3965,18.1416 2.0858,7.10384 2.3217,10.88566 0.7542,12.09036 -0.5943,0.45672 -6.7208,2.88224 -13.6144,5.39002 -27.521,10.01162 -37.1186,18.05599 -35.0022,29.33754 1.3664,7.28348 3.3729,7.71159 13.1951,2.81534 12.9163,-6.43864 13.5363,-6.56536 22.1317,-4.52395 12.7609,3.03071 36.1835,13.39828 48.0822,21.28268 4.0973,2.715 7.491,6.11767 12.5339,12.56697 21.7458,27.81065 27.4991,33.73 37.8938,38.98736 9.5393,4.82472 21.4804,4.28244 26.0804,-1.1844 2.3568,-2.80089 2.4282,-3.66057 1.1355,-13.66318 -0.2295,-1.77617 0.1242,-2.20781 1.9863,-2.42377 1.7669,-0.20493 3.8605,1.12661 9.5136,6.05085 10.1702,8.85889 24.7504,20.72024 28.8325,23.45593 4.2678,2.86007 8.1505,2.98797 10.6286,0.3501 z m -341.5724,-123.92425 c 7.1209,-3.1844 14.8874,-3.6583 20.8853,-1.27444 5.7994,2.305 13.3708,2.40798 17.419,0.23691 3.8366,-2.05757 5.7801,-5.83507 7.049,-13.70087 0.9846,-6.1031 1.2295,-6.5703 5.4226,-10.3402 2.4153,-2.1715 8.2917,-6.2779 13.0586,-9.1252 7.8729,-4.7025 36.7859,-19.3142 42.5684,-21.5127 l 2.3779,-0.9041 -2.1481,2.3051 c -1.1814,1.2678 -7.9827,6.9918 -15.1141,12.7201 -7.1314,5.7282 -15.2028,12.5808 -17.9364,15.2279 -4.5012,4.3586 -4.9704,5.1563 -4.9704,8.451 0,2.9359 0.4588,4.0016 2.3771,5.5216 5.4708,4.3348 16.4092,0.8989 76.2839,-23.9618 9.7462,-4.0467 18.2066,-7.9769 18.8009,-8.7337 0.5943,-0.7568 1.0805,-3.0979 1.0805,-5.2024 0,-3.2709 -0.4706,-4.2953 -3.2415,-7.0571 -2.4698,-2.4616 -4.2185,-3.3761 -7.345,-3.8407 -2.2568,-0.3355 -4.4415,-0.4009 -4.8548,-0.1455 -0.9836,0.6079 -3.1929,-1.9488 -4.0452,-4.6813 -0.3708,-1.1886 -0.903,-4.4949 -1.1828,-7.3475 l -0.5087,-5.1864 -7.9233,-3.9567 c -4.3579,-2.1762 -10.7761,-4.578 -14.2627,-5.3375 -5.9175,-1.2889 -7.0584,-1.2749 -17.1445,0.211 -44.778,6.5969 -85.1127,27.0562 -117.5593,59.6304 -6.4182,6.4435 -12.2085,12.7552 -12.8672,14.0259 -1.1076,2.1367 -0.9937,2.6185 1.5127,6.4026 1.4907,2.2505 2.7104,4.9903 2.7104,6.08829 0,1.99349 0.6399,2.33002 6.0509,3.18229 5.3863,0.8484 8.7684,0.42398 13.5068,-1.69498 z"
                     style="fill-opacity:1;fill:#a48646" />
                </g>
              </g>
            </g>
          </g>
        </g>
      </g>
    </g>
  </g>
</svg>
