<?xml version="1.0" encoding="UTF-8" standalone="no"?>
<!-- Created with Inkscape (http://www.inkscape.org/) -->

<svg
   xmlns:dc="http://purl.org/dc/elements/1.1/"
   xmlns:cc="http://creativecommons.org/ns#"
   xmlns:rdf="http://www.w3.org/1999/02/22-rdf-syntax-ns#"
   xmlns:svg="http://www.w3.org/2000/svg"
   xmlns="http://www.w3.org/2000/svg"
   xmlns:sodipodi="http://sodipodi.sourceforge.net/DTD/sodipodi-0.dtd"
   xmlns:inkscape="http://www.inkscape.org/namespaces/inkscape"
   id="svg2"
   version="1.1"
   inkscape:version="0.48.5 r10040"
   width="512"
   height="513"
   sodipodi:docname="folder-videos.svg">
  <metadata
     id="metadata8">
    <rdf:RDF>
      <cc:Work
         rdf:about="">
        <dc:format>image/svg+xml</dc:format>
        <dc:type
           rdf:resource="http://purl.org/dc/dcmitype/StillImage" />
        <dc:title></dc:title>
      </cc:Work>
    </rdf:RDF>
  </metadata>
  <defs
     id="defs6" />
  <sodipodi:namedview
     pagecolor="#ffffff"
     bordercolor="#666666"
     borderopacity="1"
     objecttolerance="10"
     gridtolerance="10"
     guidetolerance="10"
     inkscape:pageopacity="0"
     inkscape:pageshadow="2"
     inkscape:window-width="858"
     inkscape:window-height="631"
     id="namedview4"
     showgrid="false"
     showguides="true"
     inkscape:guide-bbox="true"
     inkscape:zoom="0.46003898"
     inkscape:cx="355.42004"
     inkscape:cy="151.09593"
     inkscape:window-x="-6"
     inkscape:window-y="39"
     inkscape:window-maximized="0"
     inkscape:current-layer="g4671">
    <sodipodi:guide
       orientation="0,1"
       position="184.44701,298.18933"
       id="guide2987" />
    <sodipodi:guide
       orientation="0,1"
       position="56.87116,175.22466"
       id="guide2989" />
    <sodipodi:guide
       orientation="1,0"
       position="175.22466,192.1323"
       id="guide2991" />
    <sodipodi:guide
       orientation="0,1"
       position="243.45763,441.67453"
       id="guide3001" />
    <sodipodi:guide
       orientation="0,1"
       position="5.094677,72.072697"
       id="guide3003" />
    <sodipodi:guide
       orientation="1,0"
       position="9.2223504,483.40486"
       id="guide3005" />
    <sodipodi:guide
       orientation="1,0"
       position="502.61809,484.17339"
       id="guide3007" />
    <sodipodi:guide
       orientation="1,0"
       position="334.75424,298.18933"
       id="guide4630" />
  </sodipodi:namedview>
  <g
     id="g2995"
     transform="translate(0.9903772,-0.30574634)">
    <rect
       y="71.733047"
       x="33.692795"
       height="44.56144"
       width="183.68008"
       id="rect2984"
       style="fill-opacity:1;fill:#a48646;fill-rule:evenodd;stroke-opacity:0;stroke:#a48646;stroke-width:0;stroke-linecap:butt;stroke-linejoin:miter;stroke-miterlimit:4;stroke-dasharray:none" />
    <rect
       y="115.20763"
       x="8.6949148"
       height="326.0593"
       width="493.43646"
       id="rect2982"
       style="fill:#d6b878;fill-rule:evenodd;stroke-opacity:1;stroke:#a48646;stroke-width:0;stroke-linecap:butt;stroke-linejoin:miter;stroke-miterlimit:4;stroke-dasharray:none" />
  </g>
  <g
     transform="translate(226.5678,445.61441)"
     id="g3926">
    <g
       transform="translate(21.737289,-39.127119)"
       id="g4102">
      <g
         id="g4157"
         transform="translate(-671.90801,-288.45425)">
        <g
           id="g4214"
           transform="translate(10.868643,220.39399)">
          <path
             transform="matrix(3.8548236,0,0,4.0011786,570.95488,-4159.5772)"
             d="m 27.500001,1048.8622 a 3.502425,3.5001078 0 1 1 -7.00485,0 3.502425,3.5001078 0 1 1 7.00485,0 z"
             sodipodi:ry="3.5001078"
             sodipodi:rx="3.502425"
             sodipodi:cy="1048.8622"
             sodipodi:cx="23.997576"
             id="path3265"
             style="fill-opacity:1;fill:none;stroke-opacity:0;strokenone"
             sodipodi:type="arc" />
          <path
             transform="matrix(3.8548236,0,0,4.0011786,159.08956,-3834.1456)"
             sodipodi:type="arc"
             style="fill-opacity:1;fill:none;stroke-opacity:0;strokenone"
             id="path3267"
             sodipodi:cx="23.997576"
             sodipodi:cy="1007.8622"
             sodipodi:rx="3.502425"
             sodipodi:ry="3.5001078"
             d="m 27.500001,1007.8622 c 0,1.933 -1.568089,3.5001 -3.502425,3.5001 -1.934336,0 -3.502425,-1.5671 -3.502425,-3.5001 0,-1.9331 1.568089,-3.5001 3.502425,-3.5001 1.934336,0 3.502425,1.567 3.502425,3.5001 z" />
          <path
             transform="matrix(3.8548236,0,0,4.0011786,570.95488,-4159.5772)"
             d="m 11,1028.3622 a 5.5038109,5.5001693 0 1 1 -11.00762177,0 5.5038109,5.5001693 0 1 1 11.00762177,0 z"
             sodipodi:ry="5.5001693"
             sodipodi:rx="5.5038109"
             sodipodi:cy="1028.3622"
             sodipodi:cx="5.4961891"
             id="path3269"
             style="fill-opacity:1;fill:none;stroke-opacity:0;strokenone"
             sodipodi:type="arc" />
          <path
             transform="matrix(3.8548236,0,0,4.0011786,570.95488,-4159.5772)"
             sodipodi:type="arc"
             style="fill-opacity:1;fill:none;stroke-opacity:0;strokenone"
             id="path3271"
             sodipodi:cx="42.496189"
             sodipodi:cy="1028.3622"
             sodipodi:rx="5.5038109"
             sodipodi:ry="5.5001693"
             d="m 48,1028.3622 a 5.5038109,5.5001693 0 1 1 -11.007622,0 5.5038109,5.5001693 0 1 1 11.007622,0 z" />
          <path
             transform="matrix(3.8548236,0,0,4.0011786,570.95488,-4159.5772)"
             sodipodi:type="arc"
             style="fill-opacity:1;fill:none;stroke-opacity:0;strokenone"
             id="path3293"
             sodipodi:cx="23.997576"
             sodipodi:cy="1048.8622"
             sodipodi:rx="3.502425"
             sodipodi:ry="3.5001078"
             d="m 27.500001,1048.8622 a 3.502425,3.5001078 0 1 1 -7.00485,0 3.502425,3.5001078 0 1 1 7.00485,0 z" />
          <path
             transform="matrix(3.8548236,0,0,4.0011786,159.08956,-3834.1456)"
             d="m 27.500001,1007.8622 c 0,1.933 -1.568089,3.5001 -3.502425,3.5001 -1.934336,0 -3.502425,-1.5671 -3.502425,-3.5001 0,-1.9331 1.568089,-3.5001 3.502425,-3.5001 1.934336,0 3.502425,1.567 3.502425,3.5001 z"
             sodipodi:ry="3.5001078"
             sodipodi:rx="3.502425"
             sodipodi:cy="1007.8622"
             sodipodi:cx="23.997576"
             id="path3295"
             style="fill-opacity:1;fill:none;stroke-opacity:0;strokenone"
             sodipodi:type="arc" />
          <path
             transform="matrix(3.8548236,0,0,4.0011786,570.95488,-4159.5772)"
             sodipodi:type="arc"
             style="fill-opacity:1;fill:none;stroke-opacity:0;strokenone"
             id="path3297"
             sodipodi:cx="5.4961891"
             sodipodi:cy="1028.3622"
             sodipodi:rx="5.5038109"
             sodipodi:ry="5.5001693"
             d="m 11,1028.3622 a 5.5038109,5.5001693 0 1 1 -11.00762177,0 5.5038109,5.5001693 0 1 1 11.00762177,0 z" />
          <path
             transform="matrix(3.8548236,0,0,4.0011786,570.95488,-4159.5772)"
             d="m 48,1028.3622 a 5.5038109,5.5001693 0 1 1 -11.007622,0 5.5038109,5.5001693 0 1 1 11.007622,0 z"
             sodipodi:ry="5.5001693"
             sodipodi:rx="5.5038109"
             sodipodi:cy="1028.3622"
             sodipodi:cx="42.496189"
             id="path3299"
             style="fill-opacity:1;fill:none;stroke-opacity:0;strokenone"
             sodipodi:type="arc" />
          <g
             id="g4509"
             transform="translate(756.68343,131.09839)">
            <g
               id="g4626"
               transform="translate(-198.03512,-23.259323)">
              <g
                 id="g4671"
                 transform="translate(-339.10169,-13.042373)">
                <path
                   inkscape:connector-curvature="0"
                   style="fill-opacity:1;fill:#a48646"
                   d="m 382.12837,-194.89289 c -5.38269,0 -9.71605,4.33336 -9.71605,9.71606 l 0,77.72844 c 0,5.3827 4.33336,9.716055 9.71605,9.716055 l 97.16055,0 c 5.38269,0 9.71605,-4.333355 9.71605,-9.716055 l 0,-19.43211 38.86423,19.43211 0,-77.72844 -38.86423,19.4321 0,-19.43209 c 0,-5.3827 -4.33336,-9.71606 -9.71605,-9.71606 l -97.16055,0 z"
                   id="path3623" />
              </g>
            </g>
          </g>
        </g>
      </g>
    </g>
  </g>
</svg>
