#define desk_toggled_width 10
#define desk_toggled_height 10
static unsigned char desk_toggled_bits[] = {
   0x00, 0x00, 0x00, 0x00, 0xcc, 0x00, 0xcc, 0x00, 0x00, 0x00, 0x00, 0x00,
   0xcc, 0x00, 0xcc, 0x00, 0x00, 0x00, 0x00, 0x00 };
