#define max_toggled_width 10
#define max_toggled_height 10
static unsigned char max_toggled_bits[] = {
   0x00, 0x00, 0x30, 0x00, 0x78, 0x00, 0xfc, 0x00, 0xce, 0x01, 0xce, 0x01,
   0xfc, 0x00, 0x78, 0x00, 0x30, 0x00, 0x00, 0x00 };
