#define min_width 10
#define min_height 10
static unsigned char min_bits[] = {
   0x00, 0x00, 0x00, 0x00, 0x00, 0x00, 0x84, 0x00, 0xce, 0x01, 0xfc, 0x00,
   0x78, 0x00, 0x30, 0x00, 0x00, 0x00, 0x00, 0x00 };
