#define shade_width 14
#define shade_height 14
static unsigned char shade_bits[] = {
   0x20, 0x01, 0x08, 0x04, 0x00, 0x00, 0xfa, 0x17, 0xf8, 0x07, 0x01, 0x20,
   0xc0, 0x00, 0xe0, 0x01, 0xf1, 0x23, 0x38, 0x07, 0x12, 0x12, 0x00, 0x00,
   0x08, 0x04, 0x20, 0x01 };
