#define close_width 22
#define close_height 6
static unsigned char close_bits[] = {
   0x00, 0x00, 0x00, 0xff, 0xff, 0x3f, 0xff, 0xff, 0x3f, 0xff, 0xff, 0x3f,
   0xff, 0xff, 0x3f, 0x00, 0x00, 0x00 };
