#define iconify_width 22
#define iconify_height 6
static unsigned char iconify_bits[] = {
   0x00, 0x00, 0x00, 0xff, 0xff, 0x3f, 0xff, 0xff, 0x3f, 0xff, 0xff, 0x3f,
   0xff, 0xff, 0x3f, 0x00, 0x00, 0x00 };
