#define max_width 22
#define max_height 6
static unsigned char max_bits[] = {
   0x00, 0x00, 0x00, 0xff, 0xff, 0x3f, 0xff, 0xff, 0x3f, 0xff, 0xff, 0x3f,
   0xff, 0xff, 0x3f, 0x00, 0x00, 0x00 };
