#define iconify_width 10
#define iconify_height 10
static unsigned char iconify_bits[] = {
   0x00, 0x00, 0x00, 0x00, 0x00, 0x00, 0x82, 0x00, 0x44, 0x00, 0x28, 0x00,
   0x10, 0x00, 0x00, 0x00, 0x00, 0x00, 0x00, 0x00 };
