#define max_width 10
#define max_height 10
static unsigned char max_bits[] = {
   0x00, 0x00, 0x00, 0x00, 0x00, 0x00, 0x10, 0x00, 0x28, 0x00, 0x44, 0x00,
   0x82, 0x00, 0x00, 0x00, 0x00, 0x00, 0x00, 0x00 };
