<?xml version="1.0" encoding="UTF-8" standalone="no"?>
<!-- Created with Inkscape (http://www.inkscape.org/) -->

<svg
   xmlns:dc="http://purl.org/dc/elements/1.1/"
   xmlns:cc="http://creativecommons.org/ns#"
   xmlns:rdf="http://www.w3.org/1999/02/22-rdf-syntax-ns#"
   xmlns:svg="http://www.w3.org/2000/svg"
   xmlns="http://www.w3.org/2000/svg"
   xmlns:sodipodi="http://sodipodi.sourceforge.net/DTD/sodipodi-0.dtd"
   xmlns:inkscape="http://www.inkscape.org/namespaces/inkscape"
   id="svg2"
   version="1.1"
   inkscape:version="0.48.5 r10040"
   width="512"
   height="513"
   sodipodi:docname="folder-videos.svg">
  <metadata
     id="metadata8">
    <rdf:RDF>
      <cc:Work
         rdf:about="">
        <dc:format>image/svg+xml</dc:format>
        <dc:type
           rdf:resource="http://purl.org/dc/dcmitype/StillImage" />
        <dc:title></dc:title>
      </cc:Work>
    </rdf:RDF>
  </metadata>
  <defs
     id="defs6" />
  <sodipodi:namedview
     pagecolor="#ffffff"
     bordercolor="#666666"
     borderopacity="1"
     objecttolerance="10"
     gridtolerance="10"
     guidetolerance="10"
     inkscape:pageopacity="0"
     inkscape:pageshadow="2"
     inkscape:window-width="858"
     inkscape:window-height="631"
     id="namedview4"
     showgrid="false"
     showguides="true"
     inkscape:guide-bbox="true"
     inkscape:zoom="0.46003898"
     inkscape:cx="355.42004"
     inkscape:cy="151.09593"
     inkscape:window-x="-6"
     inkscape:window-y="39"
     inkscape:window-maximized="0"
     inkscape:current-layer="g4626">
    <sodipodi:guide
       orientation="0,1"
       position="184.44701,298.18933"
       id="guide2987" />
    <sodipodi:guide
       orientation="0,1"
       position="56.87116,175.22466"
       id="guide2989" />
    <sodipodi:guide
       orientation="1,0"
       position="175.22466,192.1323"
       id="guide2991" />
    <sodipodi:guide
       orientation="0,1"
       position="243.45763,441.67453"
       id="guide3001" />
    <sodipodi:guide
       orientation="0,1"
       position="5.094677,72.072697"
       id="guide3003" />
    <sodipodi:guide
       orientation="1,0"
       position="9.2223504,483.40486"
       id="guide3005" />
    <sodipodi:guide
       orientation="1,0"
       position="502.61809,484.17339"
       id="guide3007" />
    <sodipodi:guide
       orientation="1,0"
       position="334.75424,298.18933"
       id="guide4630" />
  </sodipodi:namedview>
  <g
     id="g2995"
     transform="translate(0.9903772,-0.30574634)">
    <rect
       y="71.733047"
       x="33.692795"
       height="44.56144"
       width="183.68008"
       id="rect2984"
       style="fill-opacity:1;fill:#a48646;fill-rule:evenodd;stroke-opacity:0;stroke:#a48646;stroke-width:0;stroke-linecap:butt;stroke-linejoin:miter;stroke-miterlimit:4;stroke-dasharray:none" />
    <rect
       y="115.20763"
       x="8.6949148"
       height="326.0593"
       width="493.43646"
       id="rect2982"
       style="fill:#d6b878;fill-rule:evenodd;stroke-opacity:1;stroke:#a48646;stroke-width:0;stroke-linecap:butt;stroke-linejoin:miter;stroke-miterlimit:4;stroke-dasharray:none" />
  </g>
  <g
     transform="translate(226.5678,445.61441)"
     id="g3926">
    <g
       transform="translate(21.737289,-39.127119)"
       id="g4102">
      <g
         id="g4157"
         transform="translate(-671.90801,-288.45425)">
        <g
           id="g4214"
           transform="translate(10.868643,220.39399)">
          <path
             transform="matrix(3.8548236,0,0,4.0011786,570.95488,-4159.5772)"
             d="m 27.500001,1048.8622 a 3.502425,3.5001078 0 1 1 -7.00485,0 3.502425,3.5001078 0 1 1 7.00485,0 z"
             sodipodi:ry="3.5001078"
             sodipodi:rx="3.502425"
             sodipodi:cy="1048.8622"
             sodipodi:cx="23.997576"
             id="path3265"
             style="fill-opacity:1;fill:none;stroke-opacity:0;strokenone"
             sodipodi:type="arc" />
          <path
             transform="matrix(3.8548236,0,0,4.0011786,159.08956,-3834.1456)"
             sodipodi:type="arc"
             style="fill-opacity:1;fill:none;stroke-opacity:0;strokenone"
             id="path3267"
             sodipodi:cx="23.997576"
             sodipodi:cy="1007.8622"
             sodipodi:rx="3.502425"
             sodipodi:ry="3.5001078"
             d="m 27.500001,1007.8622 c 0,1.933 -1.568089,3.5001 -3.502425,3.5001 -1.934336,0 -3.502425,-1.5671 -3.502425,-3.5001 0,-1.9331 1.568089,-3.5001 3.502425,-3.5001 1.934336,0 3.502425,1.567 3.502425,3.5001 z" />
          <path
             transform="matrix(3.8548236,0,0,4.0011786,570.95488,-4159.5772)"
             d="m 11,1028.3622 a 5.5038109,5.5001693 0 1 1 -11.00762177,0 5.5038109,5.5001693 0 1 1 11.00762177,0 z"
             sodipodi:ry="5.5001693"
             sodipodi:rx="5.5038109"
             sodipodi:cy="1028.3622"
             sodipodi:cx="5.4961891"
             id="path3269"
             style="fill-opacity:1;fill:none;stroke-opacity:0;strokenone"
             sodipodi:type="arc" />
          <path
             transform="matrix(3.8548236,0,0,4.0011786,570.95488,-4159.5772)"
             sodipodi:type="arc"
             style="fill-opacity:1;fill:none;stroke-opacity:0;strokenone"
             id="path3271"
             sodipodi:cx="42.496189"
             sodipodi:cy="1028.3622"
             sodipodi:rx="5.5038109"
             sodipodi:ry="5.5001693"
             d="m 48,1028.3622 a 5.5038109,5.5001693 0 1 1 -11.007622,0 5.5038109,5.5001693 0 1 1 11.007622,0 z" />
          <path
             transform="matrix(3.8548236,0,0,4.0011786,570.95488,-4159.5772)"
             sodipodi:type="arc"
             style="fill-opacity:1;fill:none;stroke-opacity:0;strokenone"
             id="path3293"
             sodipodi:cx="23.997576"
             sodipodi:cy="1048.8622"
             sodipodi:rx="3.502425"
             sodipodi:ry="3.5001078"
             d="m 27.500001,1048.8622 a 3.502425,3.5001078 0 1 1 -7.00485,0 3.502425,3.5001078 0 1 1 7.00485,0 z" />
          <path
             transform="matrix(3.8548236,0,0,4.0011786,159.08956,-3834.1456)"
             d="m 27.500001,1007.8622 c 0,1.933 -1.568089,3.5001 -3.502425,3.5001 -1.934336,0 -3.502425,-1.5671 -3.502425,-3.5001 0,-1.9331 1.568089,-3.5001 3.502425,-3.5001 1.934336,0 3.502425,1.567 3.502425,3.5001 z"
             sodipodi:ry="3.5001078"
             sodipodi:rx="3.502425"
             sodipodi:cy="1007.8622"
             sodipodi:cx="23.997576"
             id="path3295"
             style="fill-opacity:1;fill:none;stroke-opacity:0;strokenone"
             sodipodi:type="arc" />
          <path
             transform="matrix(3.8548236,0,0,4.0011786,570.95488,-4159.5772)"
             sodipodi:type="arc"
             style="fill-opacity:1;fill:none;stroke-opacity:0;strokenone"
             id="path3297"
             sodipodi:cx="5.4961891"
             sodipodi:cy="1028.3622"
             sodipodi:rx="5.5038109"
             sodipodi:ry="5.5001693"
             d="m 11,1028.3622 a 5.5038109,5.5001693 0 1 1 -11.00762177,0 5.5038109,5.5001693 0 1 1 11.00762177,0 z" />
          <path
             transform="matrix(3.8548236,0,0,4.0011786,570.95488,-4159.5772)"
             d="m 48,1028.3622 a 5.5038109,5.5001693 0 1 1 -11.007622,0 5.5038109,5.5001693 0 1 1 11.007622,0 z"
             sodipodi:ry="5.5001693"
             sodipodi:rx="5.5038109"
             sodipodi:cy="1028.3622"
             sodipodi:cx="42.496189"
             id="path3299"
             style="fill-opacity:1;fill:none;stroke-opacity:0;strokenone"
             sodipodi:type="arc" />
          <g
             id="g4509"
             transform="translate(756.68343,131.09839)">
            <g
               id="g4626"
               transform="translate(-198.03512,-23.259323)">
              <path
                 inkscape:connector-curvature="0"
                 id="path3146"
                 d="m 99.082758,-91.306948 c -14.95902,-0.60506 -25.08306,-1.75033 -32.9075,-3.72371 -8.95738,-2.25906 -15.34803,-5.681162 -17.98569,-9.631152 -1.82326,-2.73029 -2.12911,-4.14217 -2.01417,-9.29913 0.0968,-4.34249 0.10414,-4.38567 1.13523,-6.52982 2.52013,-5.24167 7.17427,-9.6852 15.7981,-15.08325 4.26401,-2.66905 13.02406,-6.97829 19.28208,-9.48535 6.22514,-2.49381 7.61411,-3.48474 8.98251,-6.40898 0.68979,-1.47488 0.83439,-2.15978 0.83439,-3.96149 0,-3.44265 -0.63084,-5.18385 -2.73888,-7.55803 -8.87496,-9.99629 -14.56062,-24.81331 -14.56062,-37.94567 0,-14.53016 6.23187,-25.88722 17.19893,-31.34376 4.63314,-2.30528 8.704132,-3.30846 14.314382,-3.52746 15.36773,-0.59953 28.03851,7.99143 32.36349,21.94368 2.28173,7.36048 2.33716,17.20916 0.14554,25.88299 -2.12809,8.42352 -6.93527,18.00879 -11.88614,23.70044 -2.58662,2.97372 -2.83169,3.40609 -3.36196,5.93295 -0.63452,3.02454 -0.46691,6.07754 0.43929,8.00644 1.0098,2.14836 2.33365,3.111 6.20084,4.50908 20.28506,7.33348 34.61344,17.03583 38.17037,25.84697 0.60782,1.50591 0.66584,2.08941 0.66676,6.68626 2.7e-4,4.8888 -0.0189,5.08568 -0.78833,6.71979 -3.28423,7.01072 -13.58987,11.521092 -31.63698,13.846352 -7.95079,1.02446 -28.39557,1.79702 -37.651792,1.42285 z"
                 style="fill-opacity:1;fill:#a48646" />
            </g>
          </g>
        </g>
      </g>
    </g>
  </g>
</svg>
