<?xml version="1.0" encoding="UTF-8" standalone="no"?>
<!-- Created with Inkscape (http://www.inkscape.org/) -->

<svg
   xmlns:dc="http://purl.org/dc/elements/1.1/"
   xmlns:cc="http://creativecommons.org/ns#"
   xmlns:rdf="http://www.w3.org/1999/02/22-rdf-syntax-ns#"
   xmlns:svg="http://www.w3.org/2000/svg"
   xmlns="http://www.w3.org/2000/svg"
   xmlns:sodipodi="http://sodipodi.sourceforge.net/DTD/sodipodi-0.dtd"
   xmlns:inkscape="http://www.inkscape.org/namespaces/inkscape"
   id="svg2"
   version="1.1"
   inkscape:version="0.48.5 r10040"
   width="512"
   height="513"
   sodipodi:docname="folder-fonts.svg">
  <metadata
     id="metadata8">
    <rdf:RDF>
      <cc:Work
         rdf:about="">
        <dc:format>image/svg+xml</dc:format>
        <dc:type
           rdf:resource="http://purl.org/dc/dcmitype/StillImage" />
        <dc:title></dc:title>
      </cc:Work>
    </rdf:RDF>
  </metadata>
  <defs
     id="defs6" />
  <sodipodi:namedview
     pagecolor="#ffffff"
     bordercolor="#666666"
     borderopacity="1"
     objecttolerance="10"
     gridtolerance="10"
     guidetolerance="10"
     inkscape:pageopacity="0"
     inkscape:pageshadow="2"
     inkscape:window-width="858"
     inkscape:window-height="631"
     id="namedview4"
     showgrid="false"
     showguides="true"
     inkscape:guide-bbox="true"
     inkscape:zoom="0.46003898"
     inkscape:cx="355.42004"
     inkscape:cy="151.09593"
     inkscape:window-x="4"
     inkscape:window-y="61"
     inkscape:window-maximized="0"
     inkscape:current-layer="svg2">
    <sodipodi:guide
       orientation="0,1"
       position="184.44701,298.18933"
       id="guide2987" />
    <sodipodi:guide
       orientation="0,1"
       position="56.87116,175.22466"
       id="guide2989" />
    <sodipodi:guide
       orientation="1,0"
       position="175.22466,192.1323"
       id="guide2991" />
    <sodipodi:guide
       orientation="1,0"
       position="324.31932,119.89055"
       id="guide2993" />
    <sodipodi:guide
       orientation="0,1"
       position="242.85523,398.09812"
       id="guide2999" />
    <sodipodi:guide
       orientation="0,1"
       position="243.45763,441.67453"
       id="guide3001" />
    <sodipodi:guide
       orientation="0,1"
       position="5.094677,72.072697"
       id="guide3003" />
    <sodipodi:guide
       orientation="1,0"
       position="9.2223504,483.40486"
       id="guide3005" />
    <sodipodi:guide
       orientation="1,0"
       position="502.61809,484.17339"
       id="guide3007" />
  </sodipodi:namedview>
  <g
     id="g2995"
     transform="translate(0.9903772,-0.30574634)">
    <rect
       y="71.733047"
       x="33.692795"
       height="44.56144"
       width="183.68008"
       id="rect2984"
       style="fill-opacity:1;fill:#a48646;fill-rule:evenodd;stroke-opacity:0;stroke:#a48646;stroke-width:0;stroke-linecap:butt;stroke-linejoin:miter;stroke-miterlimit:4;stroke-dasharray:none" />
    <rect
       y="115.20763"
       x="8.6949148"
       height="326.0593"
       width="493.43646"
       id="rect2982"
       style="fill:#d6b878;fill-rule:evenodd;stroke-opacity:1;stroke:#a48646;stroke-width:0;stroke-linecap:butt;stroke-linejoin:miter;stroke-miterlimit:4;stroke-dasharray:none" />
  </g>
  <g
     id="layer1"
     transform="matrix(5.4268192,0,0,5.4268192,124.41348,160.21465)">
    <rect
       height="17.412197"
       width="25.926046"
       stroke-miterlimit="2.01260185242"
       transform="translate(10.8203,14.5569)"
       id="shape0"
       x="0"
       y="0"
       style="fill-opacity:1;fill:#a48646;fill-rule:evenodd;stroke-opacity:0;stroke:#a48646;stroke-width:0;stroke-linecap:square;stroke-linejoin:miter;stroke-miterlimit:2.01260185" />
    <path
       d="M 19.4498,9.15558 C 18.7468,3.50933 14.0309,-0.5171 8.7897,0.0539293 3.54849,0.624959 -0.330101,5.58775 0.0222151,11.2722 0.374532,16.9567 4.83085,21.3152 10.0956,21.1246 c 5.2648,-0.1906 9.4416,-4.8618 9.4416,-10.559"
       stroke-miterlimit="2.01260185242"
       transform="translate(1.19307,14.5417)"
       id="shape1"
       inkscape:connector-curvature="0"
       style="fill-opacity:1;fill:#a48646;fill-rule:evenodd;stroke-opacity:0;stroke:#a48646;stroke-width:0;stroke-linecap:square;stroke-linejoin:miter;stroke-miterlimit:2.01260185" />
    <path
       d="M 0,10.569 C 0.00134316,16.1776 4.16446,20.8077 9.48275,21.1153 14.801,21.4229 19.4207,17.3008 20.0054,11.7261 20.5901,6.15128 16.936,1.06701 11.6822,0.145095 6.4283,-0.776817 1.406,2.78499 0.242361,8.25817"
       stroke-miterlimit="2.00000000000"
       transform="translate(26.8493,14.5526)"
       id="shape2"
       inkscape:connector-curvature="0"
       style="fill-opacity:1;fill:#a48646;fill-rule:evenodd;stroke-opacity:0;stroke:#a48646;stroke-width:0;stroke-linecap:square;stroke-linejoin:miter;stroke-miterlimit:2" />
    <path
       d="M 0,7.48678 C 9.51459e-4,11.4598 2.95,14.7396 6.71734,14.9575 10.4847,15.1754 13.7571,12.2555 14.1713,8.30644 14.5855,4.35741 11.997,0.75584 8.27535,0.102781 4.55365,-0.550278 0.995975,1.97281 0.171683,5.84988"
       stroke-miterlimit="2.00000000000"
       transform="translate(29.9117,17.733)"
       id="shape3"
       inkscape:connector-curvature="0"
       style="fill-opacity:1;fill:#a48646;fill-rule:evenodd;stroke-opacity:0;stroke:#a48646;stroke-width:0;stroke-linecap:square;stroke-linejoin:miter;stroke-miterlimit:2" />
    <rect
       height="11.644175"
       width="3.626874"
       stroke-miterlimit="2.01260185242"
       transform="translate(8.93816,19.2013)"
       id="shape4"
       x="0"
       y="0"
       style="fill-opacity:1;fill:#a48646;fill-rule:evenodd;stroke-opacity:0;stroke:#a48646;stroke-width:0;stroke-linecap:square;stroke-linejoin:miter;stroke-miterlimit:2.01260185" />
    <rect
       height="11.644175"
       width="3.626874"
       stroke-miterlimit="2.00000000000"
       transform="matrix(0,1,-1,0,16.5737,23.2418)"
       id="shape5"
       x="0"
       y="0"
       style="fill-opacity:1;fill:#a48646;fill-rule:evenodd;stroke-opacity:0;stroke:#a48646;stroke-width:0;stroke-linecap:square;stroke-linejoin:miter;stroke-miterlimit:2" />
    <rect
       ry="0.7648769"
       rx="0.7648769"
       height="3.8243845"
       width="1.5297538"
       stroke-miterlimit="2.01260185242"
       transform="matrix(0.707107,0.707107,-0.707107,0.707107,22.1056,23.1644)"
       id="shape6"
       x="0"
       y="0"
       style="fill-opacity:1;fill:#a48646;fill-rule:evenodd;stroke-opacity:0;stroke:#a48646;stroke-width:0;stroke-linecap:square;stroke-linejoin:miter;stroke-miterlimit:2.01260185" />
    <rect
       ry="0.7648769"
       rx="0.7648769"
       height="3.8243845"
       width="1.5297538"
       stroke-miterlimit="2.00000000000"
       transform="matrix(0.707107,0.707107,-0.707107,0.707107,26.7848,23.2319)"
       id="shape7"
       x="0"
       y="0"
       style="fill-opacity:1;fill:#a48646;fill-rule:evenodd;stroke-opacity:0;stroke:#a48646;stroke-width:0;stroke-linecap:square;stroke-linejoin:miter;stroke-miterlimit:2" />
    <rect
       ry="2.4300067"
       rx="2.4300067"
       height="4.8600135"
       width="11.233166"
       stroke-miterlimit="2.01260185242"
       transform="matrix(0.707107,-0.707107,0.707107,0.707107,29.4592,25.1499)"
       id="shape8"
       x="0"
       y="0"
       style="fill-opacity:1;fill:#a48646;fill-rule:evenodd;stroke-opacity:0;stroke:#a48646;stroke-width:0;stroke-linecap:square;stroke-linejoin:miter;stroke-miterlimit:2.01260185" />
    <path
       d="M 3.9679,1.98395 C 3.9679,0.888245 3.07966,0 1.98395,0 0.888245,0 0,0.888245 0,1.98395 0,3.07966 0.888245,3.9679 1.98395,3.9679 3.07966,3.9679 3.9679,3.07966 3.9679,1.98395"
       stroke-miterlimit="2.00000000000"
       transform="matrix(0.707107,-0.707107,0.707107,0.707107,30.133,25.1373)"
       id="shape9"
       inkscape:connector-curvature="0"
       style="fill-opacity:1;fill:#a48646;fill-rule:evenodd;stroke-opacity:0;stroke:#a48646;stroke-width:0;stroke-linecap:square;stroke-linejoin:miter;stroke-miterlimit:2" />
    <path
       d="M 3.9679,1.98395 C 3.9679,0.888245 3.07966,0 1.98395,0 0.888245,0 0,0.888245 0,1.98395 0,3.07966 0.888245,3.9679 1.98395,3.9679 3.07966,3.9679 3.9679,3.07966 3.9679,1.98395"
       stroke-miterlimit="2.00000000000"
       transform="matrix(0.707107,-0.707107,0.707107,0.707107,34.6031,20.6421)"
       id="shape10"
       inkscape:connector-curvature="0"
       style="fill-opacity:1;fill:#a48646;fill-rule:evenodd;stroke-opacity:0;stroke:#a48646;stroke-width:0;stroke-linecap:square;stroke-linejoin:miter;stroke-miterlimit:2" />
    <rect
       ry="2.4300067"
       rx="2.4300067"
       height="4.8600135"
       width="11.233166"
       stroke-miterlimit="2.00000000000"
       transform="matrix(0.707107,-0.707107,0.707107,0.707107,33.4001,29.6511)"
       id="shape11"
       x="0"
       y="0"
       style="fill-opacity:1;fill:#a48646;fill-rule:evenodd;stroke-opacity:0;stroke:#a48646;stroke-width:0;stroke-linecap:square;stroke-linejoin:miter;stroke-miterlimit:2" />
    <path
       d="M 3.9679,1.98395 C 3.9679,0.888245 3.07966,0 1.98395,0 0.888245,0 0,0.888245 0,1.98395 0,3.07966 0.888245,3.9679 1.98395,3.9679 3.07966,3.9679 3.9679,3.07966 3.9679,1.98395"
       stroke-miterlimit="2.00000000000"
       transform="matrix(0.707107,-0.707107,0.707107,0.707107,34.0739,29.6082)"
       id="shape12"
       inkscape:connector-curvature="0"
       style="fill-opacity:1;fill:#a48646;fill-rule:evenodd;stroke-opacity:0;stroke:#a48646;stroke-width:0;stroke-linecap:square;stroke-linejoin:miter;stroke-miterlimit:2" />
    <path
       d="M 3.9679,1.98395 C 3.9679,0.888245 3.07966,0 1.98395,0 0.888245,0 0,0.888245 0,1.98395 0,3.07966 0.888245,3.9679 1.98395,3.9679 3.07966,3.9679 3.9679,3.07966 3.9679,1.98395"
       stroke-miterlimit="2.00000000000"
       transform="matrix(0.707107,-0.707107,0.707107,0.707107,38.544,25.1433)"
       id="shape13"
       inkscape:connector-curvature="0"
       style="fill-opacity:1;fill:#a48646;fill-rule:evenodd;stroke-opacity:0;stroke:#a48646;stroke-width:0;stroke-linecap:square;stroke-linejoin:miter;stroke-miterlimit:2" />
  </g>
</svg>
