#define desk_toggled_width 14
#define desk_toggled_height 15
static unsigned char desk_toggled_bits[] = {
   0x00, 0x00, 0x00, 0x00, 0x00, 0x00, 0x00, 0x02, 0x60, 0x06, 0x70, 0x0f,
   0x18, 0x03, 0x98, 0x00, 0x18, 0x06, 0x18, 0x06, 0xf0, 0x03, 0xe0, 0x01,
   0x00, 0x00, 0x00, 0x00, 0x00, 0x00 };
