#define max_width 8
#define max_height 8
static unsigned char max_bits[] = {
   0x18, 0x18, 0x18, 0xff, 0xff, 0x18, 0x18, 0x18 };
